<svg width="19" height="24" viewBox="0 0 19 24" fill="none" xmlns="http://www.w3.org/2000/svg">
<path d="M15.2332 16.1531C14.7933 16.7038 14.3534 17.2545 13.9152 17.8052C13.5626 18.2484 13.2084 18.69 12.8558 19.1332C12.6358 19.4103 12.2698 20.0919 11.9441 20.2195C11.8283 20.2649 11.7023 20.2665 11.5781 20.2682C10.1157 20.2884 8.64996 20.3589 7.18757 20.3589C6.85681 20.3656 6.64022 20.285 6.3548 20.5335C5.70336 21.1044 5.40954 20.6796 4.90416 20.1406C4.518 19.7293 4.15534 19.2944 3.76414 18.8881C3.3763 18.4851 3.153 18.3643 3.5358 17.874C3.99416 17.2897 4.6221 16.823 5.35245 16.65C5.96528 16.5056 6.68388 16.5845 7.25977 16.8263C7.47971 16.9187 7.65097 17.0429 7.89778 17.0513C8.38804 17.0681 8.88333 17.058 9.37527 17.058C9.87393 17.0614 10.3793 17.0463 10.878 17.0698C11.1785 17.0832 11.4723 17.3115 11.6201 17.5617C11.7426 17.7699 11.7443 18.0318 11.568 18.2115C11.3598 18.423 11.0459 18.4935 10.7621 18.5271C10.3994 18.5691 10.0368 18.5607 9.67245 18.5406C9.18219 18.512 8.69025 18.4549 8.19999 18.4801C8.15634 18.4818 8.11101 18.4852 8.07239 18.5036C8.03377 18.5221 7.99852 18.5607 7.99852 18.6044C7.99852 18.6598 8.05056 18.7034 8.10261 18.7252C8.18656 18.7588 8.2789 18.7571 8.36957 18.7571C9.19059 18.7437 10.0099 18.7286 10.8309 18.7521C10.9737 18.7555 11.1164 18.7622 11.2557 18.7353C11.5076 18.6866 11.699 18.507 11.8249 18.2904C11.9156 18.1342 11.9726 17.9613 12.0247 17.7884C12.0683 17.6423 12.0616 17.4727 12.1489 17.3434C12.2161 17.241 12.337 17.152 12.4243 17.0647L13.0203 16.4637C13.383 16.0976 13.7473 15.73 14.11 15.3639C14.1368 15.3371 14.162 15.3119 14.1889 15.285C14.1889 15.285 15.4431 14.605 15.2366 16.1547L15.2332 16.1531Z" fill="#EEAC1F"/>
<path d="M5.63275 21.6199C5.63275 21.6199 5.621 21.6317 5.61596 21.6384C5.49004 21.766 5.36411 21.8936 5.23819 22.0212C5.01153 22.2478 4.78822 22.4745 4.56156 22.7012C4.4306 22.8338 4.29964 22.9664 4.17204 23.1008C4.13678 23.1377 4.09984 23.1763 4.05451 23.1998C3.95209 23.2535 3.85807 23.1881 3.7842 23.1192C3.37453 22.7347 3.00012 22.3066 2.61059 21.902C2.22107 21.4973 1.80133 21.0608 1.39502 20.6411L1.12806 20.364C1.01725 20.2499 0.901398 20.1206 0.887966 19.9628C0.877892 19.8452 0.929941 19.7311 1.00382 19.6387C1.07097 19.5548 1.15996 19.501 1.23719 19.4288C1.30939 19.36 1.37823 19.2811 1.45042 19.2106C1.62 19.0444 1.7879 18.8798 1.95747 18.7136L2.23786 18.4399C2.34699 18.3342 2.44438 18.262 2.60892 18.3358C2.68279 18.3694 2.73987 18.4282 2.79696 18.4853C3.41482 19.1082 4.03604 19.7277 4.65726 20.3489C4.98131 20.673 5.34061 20.9836 5.63946 21.3311C5.6848 21.3832 5.71838 21.4554 5.69991 21.5208C5.68983 21.5595 5.66297 21.5914 5.63611 21.6216L5.63275 21.6199Z" fill="#EEAC1F"/>
<path d="M3.99792 22.5986C4.14535 22.5986 4.26487 22.4791 4.26487 22.3317C4.26487 22.1842 4.14535 22.0647 3.99792 22.0647C3.85048 22.0647 3.73096 22.1842 3.73096 22.3317C3.73096 22.4791 3.85048 22.5986 3.99792 22.5986Z" fill="#EEAC1F"/>
<path d="M4.21794 8.10214C4.62929 7.52961 5.04064 6.95876 5.45199 6.38623C5.78275 5.92619 6.11351 5.46615 6.44426 5.00611C6.65078 4.71901 6.98153 4.01888 7.29886 3.87617C7.41135 3.8258 7.53895 3.81572 7.66152 3.80901C9.12223 3.71498 10.5813 3.57059 12.042 3.4984C12.3727 3.47489 12.5927 3.54541 12.8647 3.28181C13.4876 2.67906 13.8015 3.08873 14.3338 3.60081C14.7401 3.99201 15.1246 4.4084 15.5359 4.79456C15.9439 5.17737 16.1722 5.28818 15.8146 5.79523C15.3865 6.40302 14.7837 6.9 14.0618 7.10819C13.4557 7.2828 12.7354 7.24083 12.1494 7.0276C11.9244 6.94701 11.7481 6.83116 11.5013 6.83452C11.0111 6.84291 10.5158 6.87649 10.0255 6.90168C9.52686 6.9235 9.02317 6.9638 8.52451 6.96548C8.22398 6.96548 7.9184 6.75393 7.75722 6.51048C7.6229 6.309 7.60947 6.04708 7.77737 5.85903C7.97381 5.63741 8.28442 5.55178 8.56649 5.50309C8.92747 5.44265 9.28845 5.43257 9.65446 5.43593C10.1464 5.44097 10.64 5.47119 11.1286 5.4225C11.1723 5.41746 11.2176 5.41243 11.2562 5.39228C11.2948 5.37213 11.3267 5.33183 11.325 5.28818C11.3234 5.23277 11.268 5.19248 11.2159 5.17401C11.1303 5.14547 11.0379 5.15051 10.9473 5.15722C10.1279 5.21263 9.31027 5.26804 8.48926 5.28483C8.34654 5.28818 8.20383 5.28986 8.06448 5.32344C7.81431 5.38388 7.63298 5.57361 7.51881 5.79691C7.43654 5.95809 7.38785 6.13438 7.34419 6.309C7.30894 6.45675 7.32237 6.62632 7.24346 6.76064C7.18133 6.86642 7.06549 6.96044 6.98322 7.05279L6.41908 7.6824C6.07489 8.06689 5.7307 8.45137 5.38651 8.83586C5.36132 8.86272 5.33782 8.89126 5.31264 8.91813C5.31264 8.91813 4.0937 9.66023 4.22298 8.10214H4.21794Z" fill="#EEAC1F"/>
<path d="M13.5317 2.15855C13.5317 2.15855 13.5435 2.14679 13.5485 2.14008C13.6677 2.00576 13.7869 1.87312 13.9062 1.7388C14.1211 1.50207 14.3326 1.26365 14.5475 1.02524C14.6718 0.887562 14.796 0.748207 14.9169 0.605494C14.9505 0.566878 14.9841 0.526584 15.0294 0.499721C15.1301 0.440957 15.2258 0.49972 15.3031 0.566879C15.7312 0.929537 16.1274 1.33921 16.5371 1.72369C16.9468 2.10818 17.3883 2.52288 17.8131 2.9208L18.0935 3.1844C18.2094 3.29353 18.3336 3.4161 18.3538 3.57392C18.3689 3.68977 18.3235 3.8073 18.2547 3.903C18.1909 3.99031 18.1069 4.04739 18.0331 4.12463C17.9642 4.19682 17.9004 4.27909 17.8316 4.35297C17.6704 4.52758 17.5109 4.70051 17.3497 4.87513L17.0844 5.16391C16.982 5.27472 16.888 5.35196 16.7184 5.28648C16.6429 5.25625 16.5824 5.20085 16.522 5.14712C15.8722 4.55612 15.2208 3.96848 14.571 3.38084C14.2319 3.07359 13.8575 2.78145 13.5418 2.45069C13.4948 2.40032 13.4579 2.33148 13.4713 2.26432C13.4797 2.22571 13.5049 2.19213 13.5301 2.1619L13.5317 2.15855Z" fill="#EEAC1F"/>
<path d="M15.128 1.63132C15.2755 1.63132 15.395 1.5118 15.395 1.36437C15.395 1.21693 15.2755 1.09741 15.128 1.09741C14.9806 1.09741 14.8611 1.21693 14.8611 1.36437C14.8611 1.5118 14.9806 1.63132 15.128 1.63132Z" fill="#EEAC1F"/>
<path d="M9.39387 15.8185C11.6397 15.8185 13.4603 13.9979 13.4603 11.752C13.4603 9.50617 11.6397 7.68555 9.39387 7.68555C7.14802 7.68555 5.32739 9.50617 5.32739 11.752C5.32739 13.9979 7.14802 15.8185 9.39387 15.8185Z" fill="#EEAC1F"/>
<path d="M11.4768 9.57317H10.0816C10.3385 9.778 10.4543 9.95094 10.508 10.3606H11.4768V10.9315L10.498 10.9382C10.409 11.8448 9.70717 12.2897 8.5705 12.325C9.26392 13.0453 10.0195 13.9519 10.7649 14.867H9.91201C9.21859 14.0308 8.5705 13.2585 7.73438 12.3703V11.8196H8.22296C9.18333 11.8196 9.67191 11.5711 9.73403 10.9566L7.73438 10.9533V10.3606H9.73403C9.60979 9.84516 9.138 9.5866 8.36567 9.5866H7.73438V9.00903H11.4751V9.57317H11.4768Z" fill="white"/>
</svg>
