<svg width="41" height="41" viewBox="0 0 41 41" fill="none" xmlns="http://www.w3.org/2000/svg">
<path d="M30.386 28.3316C30.3189 28.2275 30.2131 28.1637 30.0973 28.157L9.43579 28.2208C9.31994 28.2275 9.21081 28.2879 9.13526 28.3853L7.4311 30.8601C7.36226 30.9709 7.32364 31.1002 7.3186 31.2345V32.4317C7.3186 32.5458 7.40255 32.6398 7.50497 32.6398H31.7494C31.8518 32.6398 31.9357 32.5458 31.9357 32.4317V31.2312C31.9307 31.0969 31.8954 30.9659 31.835 30.8501L30.386 28.3316Z" fill="#00763C"/>
<path d="M29.2155 17.6316C29.375 17.6316 29.5043 17.4889 29.5043 17.3109V16.7098C29.5043 16.5336 29.375 16.3892 29.2155 16.3892H26.0742C25.9147 16.3892 25.7854 16.5319 25.7854 16.7098V17.3109C25.7854 17.4872 25.9147 17.6316 26.0742 17.6316H26.2051V25.9207H26.0742C25.9147 25.9207 25.7854 26.0634 25.7854 26.2414V26.8425C25.7854 27.0187 25.9147 27.1631 26.0742 27.1631H29.2139C29.3734 27.1631 29.5026 27.0204 29.5026 26.8425V26.2414C29.5026 26.0651 29.3734 25.9207 29.2139 25.9207H29.0829V17.6316H29.2139H29.2155Z" fill="#00763C"/>
<path d="M23.8701 16.3894H20.7304C20.5709 16.3894 20.4417 16.5321 20.4417 16.7101V17.3111C20.4417 17.4874 20.5709 17.6318 20.7304 17.6318H20.8614V25.9209H20.7304C20.5709 25.9209 20.4417 26.0636 20.4417 26.2416V26.8427C20.4417 27.019 20.5709 27.1634 20.7304 27.1634H23.8701C24.0296 27.1634 24.1589 27.0206 24.1589 26.8427V26.2416C24.1589 26.0653 24.0296 25.9209 23.8701 25.9209H23.7392V17.6318H23.8701C24.0296 17.6318 24.1589 17.4891 24.1589 17.3111V16.7101C24.1589 16.5338 24.0313 16.3894 23.8718 16.3877L23.8701 16.3894Z" fill="#00763C"/>
<path d="M18.5254 16.3894H15.384C15.2245 16.3894 15.0952 16.5321 15.0952 16.7101V17.3111C15.0952 17.4874 15.2245 17.6318 15.384 17.6318H15.515V25.9209H15.384C15.2245 25.9209 15.0952 26.0636 15.0952 26.2416V26.8427C15.0952 27.019 15.2245 27.1634 15.384 27.1634H18.5254C18.6849 27.1634 18.8141 27.0206 18.8141 26.8427V26.2416C18.8141 26.0653 18.6849 25.9209 18.5254 25.9209H18.3944V17.6318H18.5254C18.6849 17.6318 18.8141 17.4891 18.8141 17.3111V16.7101C18.8141 16.5338 18.6865 16.3894 18.527 16.3877L18.5254 16.3894Z" fill="#00763C"/>
<path d="M13.1785 16.3894H10.0388C9.87928 16.3894 9.75 16.5321 9.75 16.7101V17.3111C9.75 17.4874 9.87928 17.6318 10.0388 17.6318H10.1697V25.9209H10.0388C9.87928 25.9209 9.75 26.0636 9.75 26.2416V26.8427C9.75 27.019 9.87928 27.1634 10.0388 27.1634H13.1785C13.338 27.1634 13.4672 27.0206 13.4672 26.8427V26.2416C13.4672 26.0653 13.338 25.9209 13.1785 25.9209H13.0475V17.6318H13.1785C13.338 17.6318 13.4672 17.4891 13.4672 17.3111V16.7101C13.4672 16.5338 13.3396 16.3894 13.1801 16.3877L13.1785 16.3894Z" fill="#00763C"/>
<path d="M7.31952 14.4518C7.31952 14.8077 7.57976 15.0965 7.90044 15.0982H31.354C31.6747 15.0982 31.935 14.8077 31.935 14.4518V14.3124C31.935 13.9565 31.7083 13.5199 31.4329 13.3386L20.1267 5.94943C19.8514 5.76978 19.3997 5.76978 19.1244 5.94943L7.81817 13.3369C7.54282 13.5166 7.31616 13.9548 7.31616 14.3124V14.4518H7.31952Z" fill="#00763C"/>
<path d="M0.00124377 20.3212C-0.0917057 12.3112 5.0338 4.62603 12.4452 1.59445C25.785 -4.00704 40.6243 5.84357 40.6161 20.3212C40.6253 34.7999 25.785 44.6515 12.4452 39.048C5.0338 36.0164 -0.0917057 28.3312 0.00124377 20.3202V20.3212ZM0.00124377 20.3212C-0.0855772 28.3149 5.06648 35.9837 12.4963 38.9244C25.6686 44.3175 40.2075 34.5496 40.1902 20.3212C40.2085 6.09177 25.6686 -3.67712 12.4963 1.71804C5.06648 4.65872 -0.0855772 12.3276 0.00124377 20.3222V20.3212Z" fill="#EEBF3A"/>
<path d="M38.7306 20.3965C38.8164 27.7435 34.1168 34.7934 27.3192 37.5778C15.0775 42.7248 1.45477 33.6862 1.46192 20.3965C1.45375 7.10569 15.0775 -1.93391 27.3192 3.21509C34.1158 5.99949 38.8164 13.0494 38.7306 20.3975V20.3965ZM38.7306 20.3965C38.8103 13.0657 34.0841 6.03115 27.2682 3.33868C15.1939 -1.59888 1.87049 7.35594 1.88683 20.3965C1.86947 33.438 15.1929 42.3938 27.2682 37.4542C34.0831 34.7607 38.8103 27.7272 38.7306 20.3954V20.3965Z" fill="#EEBF3A"/>
<path d="M24.233 25.1523C23.7931 25.703 23.3532 26.2537 22.915 26.8044C22.5624 27.2477 22.2081 27.6893 21.8555 28.1325C21.6356 28.4095 21.2696 29.0912 20.9439 29.2188C20.828 29.2641 20.7021 29.2658 20.5778 29.2675C19.1155 29.2876 17.6497 29.3582 16.1873 29.3582C15.8566 29.3649 15.64 29.2843 15.3546 29.5328C14.7031 30.1036 14.4093 29.6788 13.9039 29.1399C13.5178 28.7285 13.1551 28.2937 12.7639 27.8874C12.3761 27.4844 12.1528 27.3635 12.5356 26.8733C12.9939 26.289 13.6219 25.8222 14.3522 25.6493C14.965 25.5049 15.6836 25.5838 16.2595 25.8256C16.4795 25.9179 16.6507 26.0422 16.8975 26.0506C17.3878 26.0674 17.8831 26.0573 18.375 26.0573C18.8737 26.0606 19.3791 26.0455 19.8777 26.069C20.1782 26.0825 20.4721 26.3108 20.6198 26.561C20.7424 26.7692 20.7441 27.0311 20.5678 27.2107C20.3596 27.4223 20.0456 27.4928 19.7619 27.5264C19.3992 27.5684 19.0365 27.56 18.6722 27.5398C18.1819 27.5113 17.69 27.4542 17.1997 27.4794C17.1561 27.4811 17.1108 27.4844 17.0721 27.5029C17.0335 27.5214 16.9983 27.56 16.9983 27.6036C16.9983 27.659 17.0503 27.7027 17.1024 27.7245C17.1863 27.7581 17.2787 27.7564 17.3693 27.7564C18.1903 27.743 19.0097 27.7279 19.8307 27.7514C19.9734 27.7547 20.1161 27.7614 20.2555 27.7346C20.5073 27.6859 20.6987 27.5062 20.8247 27.2897C20.9153 27.1335 20.9724 26.9606 21.0245 26.7876C21.0681 26.6416 21.0614 26.472 21.1487 26.3427C21.2159 26.2403 21.3367 26.1513 21.424 26.064L22.0201 25.4629C22.3827 25.0969 22.7471 24.7292 23.1097 24.3632C23.1366 24.3363 23.1618 24.3112 23.1887 24.2843C23.1887 24.2843 24.4428 23.6043 24.2363 25.154L24.233 25.1523Z" fill="#EEAC1F"/>
<path d="M14.6325 30.6192C14.6325 30.6192 14.6208 30.6309 14.6157 30.6376C14.4898 30.7652 14.3639 30.8928 14.2379 31.0205C14.0113 31.2471 13.788 31.4738 13.5613 31.7004C13.4304 31.8331 13.2994 31.9657 13.1718 32.1C13.1365 32.137 13.0996 32.1756 13.0543 32.1991C12.9519 32.2528 12.8578 32.1873 12.784 32.1185C12.3743 31.734 11.9999 31.3059 11.6103 30.9012C11.2208 30.4966 10.8011 30.0601 10.3948 29.6403L10.1278 29.3633C10.017 29.2491 9.90115 29.1199 9.88772 28.962C9.87765 28.8445 9.9297 28.7303 10.0036 28.638C10.0707 28.554 10.1597 28.5003 10.2369 28.4281C10.3091 28.3593 10.378 28.2804 10.4502 28.2098C10.6198 28.0436 10.7877 27.8791 10.9572 27.7129L11.2376 27.4392C11.3467 27.3334 11.4441 27.2612 11.6087 27.3351C11.6825 27.3687 11.7396 27.4274 11.7967 27.4845C12.4146 28.1074 13.0358 28.727 13.657 29.3482C13.9811 29.6722 14.3404 29.9828 14.6392 30.3304C14.6846 30.3824 14.7181 30.4546 14.6997 30.5201C14.6896 30.5587 14.6627 30.5906 14.6359 30.6209L14.6325 30.6192Z" fill="#EEAC1F"/>
<path d="M12.9977 31.5979C13.1451 31.5979 13.2646 31.4784 13.2646 31.3309C13.2646 31.1835 13.1451 31.064 12.9977 31.064C12.8502 31.064 12.7307 31.1835 12.7307 31.3309C12.7307 31.4784 12.8502 31.5979 12.9977 31.5979Z" fill="#EEAC1F"/>
<path d="M13.2177 17.1014C13.629 16.5289 14.0404 15.958 14.4517 15.3855C14.7825 14.9255 15.1133 14.4654 15.444 14.0054C15.6505 13.7183 15.9813 13.0181 16.2986 12.8754C16.4111 12.8251 16.5387 12.815 16.6613 12.8083C18.122 12.7143 19.581 12.5699 21.0417 12.4977C21.3725 12.4742 21.5924 12.5447 21.8644 12.2811C22.4873 11.6783 22.8013 12.088 23.3335 12.6001C23.7398 12.9913 24.1243 13.4077 24.5357 13.7938C24.9437 14.1766 25.172 14.2874 24.8144 14.7945C24.3862 15.4023 23.7835 15.8993 23.0615 16.1075C22.4554 16.2821 21.7351 16.2401 21.1492 16.0269C20.9242 15.9463 20.7479 15.8304 20.5011 15.8338C20.0108 15.8422 19.5155 15.8758 19.0253 15.9009C18.5266 15.9228 18.0229 15.9631 17.5243 15.9647C17.2237 15.9647 16.9182 15.7532 16.757 15.5097C16.6227 15.3083 16.6092 15.0463 16.7771 14.8583C16.9736 14.6367 17.2842 14.551 17.5662 14.5024C17.9272 14.4419 18.2882 14.4318 18.6542 14.4352C19.1462 14.4402 19.6398 14.4705 20.1284 14.4218C20.172 14.4167 20.2173 14.4117 20.256 14.3915C20.2946 14.3714 20.3265 14.3311 20.3248 14.2874C20.3231 14.232 20.2677 14.1917 20.2157 14.1733C20.13 14.1447 20.0377 14.1498 19.947 14.1565C19.1277 14.2119 18.31 14.2673 17.489 14.2841C17.3463 14.2875 17.2036 14.2891 17.0642 14.3227C16.8141 14.3832 16.6327 14.5729 16.5186 14.7962C16.4363 14.9574 16.3876 15.1337 16.3439 15.3083C16.3087 15.456 16.3221 15.6256 16.2432 15.7599C16.1811 15.8657 16.0652 15.9597 15.983 16.0521L15.4188 16.6817C15.0746 17.0662 14.7305 17.4506 14.3863 17.8351C14.3611 17.862 14.3376 17.8905 14.3124 17.9174C14.3124 17.9174 13.0935 18.6595 13.2227 17.1014H13.2177Z" fill="#EEAC1F"/>
<path d="M22.5315 11.1578C22.5315 11.1578 22.5432 11.1461 22.5483 11.1393C22.6675 11.005 22.7867 10.8724 22.9059 10.7381C23.1208 10.5013 23.3324 10.2629 23.5473 10.0245C23.6715 9.88683 23.7958 9.74747 23.9166 9.60476C23.9502 9.56615 23.9838 9.52585 24.0291 9.49899C24.1299 9.44022 24.2256 9.49899 24.3028 9.56615C24.731 9.9288 25.1272 10.3385 25.5369 10.723C25.9465 11.1074 26.3881 11.5222 26.8129 11.9201L27.0933 12.1837C27.2091 12.2928 27.3334 12.4154 27.3535 12.5732C27.3686 12.689 27.3233 12.8066 27.2544 12.9023C27.1906 12.9896 27.1067 13.0467 27.0328 13.1239C26.964 13.1961 26.9002 13.2784 26.8313 13.3522C26.6702 13.5268 26.5107 13.6998 26.3495 13.8744L26.0842 14.1632C25.9818 14.274 25.8878 14.3512 25.7182 14.2857C25.6426 14.2555 25.5822 14.2001 25.5217 14.1464C24.872 13.5554 24.2205 12.9678 23.5708 12.3801C23.2316 12.0729 22.8572 11.7807 22.5416 11.45C22.4946 11.3996 22.4576 11.3307 22.4711 11.2636C22.4794 11.225 22.5046 11.1914 22.5298 11.1612L22.5315 11.1578Z" fill="#EEAC1F"/>
<path d="M24.1278 10.6306C24.2752 10.6306 24.3948 10.5111 24.3948 10.3636C24.3948 10.2162 24.2752 10.0967 24.1278 10.0967C23.9804 10.0967 23.8608 10.2162 23.8608 10.3636C23.8608 10.5111 23.9804 10.6306 24.1278 10.6306Z" fill="#EEAC1F"/>
<path d="M18.3936 24.8178C20.6395 24.8178 22.4601 22.9971 22.4601 20.7513C22.4601 18.5054 20.6395 16.6848 18.3936 16.6848C16.1478 16.6848 14.3271 18.5054 14.3271 20.7513C14.3271 22.9971 16.1478 24.8178 18.3936 24.8178Z" fill="#EEAC1F"/>
<path d="M20.4766 18.5724H19.0813C19.3382 18.7773 19.4541 18.9502 19.5078 19.3599H20.4766V19.9307L19.4977 19.9374C19.4087 20.8441 18.7069 21.289 17.5703 21.3243C18.2637 22.0446 19.0192 22.9512 19.7647 23.8662H18.9118C18.2183 23.0301 17.5703 22.2578 16.7341 21.3696V20.8189H17.2227C18.1831 20.8189 18.6717 20.5704 18.7338 19.9559L16.7341 19.9526V19.3599H18.7338C18.6095 18.8444 18.1378 18.5859 17.3654 18.5859H16.7341V18.0083H20.4749V18.5724H20.4766Z" fill="white"/>
</svg>
