<svg width="48" height="36" viewBox="0 0 48 36" fill="none" xmlns="http://www.w3.org/2000/svg">
<path d="M10 24H20M10 18H20M10 12H20M26 18L30 22L38 14M6.8 2H41.2C42.473 2 43.6939 2.50571 44.5941 3.40589C45.4943 4.30606 46 5.52696 46 6.8V29.2C46 30.473 45.4943 31.6939 44.5941 32.5941C43.6939 33.4943 42.473 34 41.2 34H6.8C5.52696 34 4.30606 33.4943 3.40589 32.5941C2.50571 31.6939 2 30.473 2 29.2V6.8C2 5.52696 2.50571 4.30606 3.40589 3.40589C4.30606 2.50571 5.52696 2 6.8 2Z" stroke="#105931" stroke-width="2.5" stroke-linecap="round" stroke-linejoin="round"/>
</svg>
